<?xml version="1.0" encoding="UTF-8" standalone="no"?>
<!-- Uploaded to: SVG Repo, www.svgrepo.com, Generator: SVG Repo Mixer Tools -->

<svg
   width="512"
   height="512"
   viewBox="0 0 30.72 30.72"
   data-name="Layer 1"
   id="Layer_1"
   version="1.1"
   sodipodi:docname="PerformanceIcon.svg"
   inkscape:version="1.3.2 (091e20e, 2023-11-25, custom)"
   xmlns:inkscape="http://www.inkscape.org/namespaces/inkscape"
   xmlns:sodipodi="http://sodipodi.sourceforge.net/DTD/sodipodi-0.dtd"
   xmlns="http://www.w3.org/2000/svg"
   xmlns:svg="http://www.w3.org/2000/svg">
  <sodipodi:namedview
     id="namedview1"
     pagecolor="#ffffff"
     bordercolor="#000000"
     borderopacity="0"
     inkscape:showpageshadow="2"
     inkscape:pageopacity="0.0"
     inkscape:pagecheckerboard="0"
     inkscape:deskcolor="#d1d1d1"
     inkscape:zoom="1.04625"
     inkscape:cx="400"
     inkscape:cy="199.28315"
     inkscape:window-width="1920"
     inkscape:window-height="1051"
     inkscape:window-x="-9"
     inkscape:window-y="-9"
     inkscape:window-maximized="1"
     inkscape:current-layer="g1" />
  <defs
     id="defs1">
    <style
       id="style1">.cls-1{fill:#55aae1;}.cls-2{opacity:0.35;}</style>
  </defs>
  <title
     id="title1" />
  <g
     id="g1"
     transform="matrix(0.73404305,0,0,0.73404305,-2.3936218,-2.6715573)">
    <path
       class="cls-1"
       d="M 42.33,38 H 5.67 L 5.42,37.37 a 20,20 0 1 1 37.16,0 z M 7,36 H 41 A 18,18 0 1 0 6,30 17.87,17.87 0 0 0 7,36 Z"
       id="path1"
       style="fill:#000000;fill-opacity:1" />
    <path
       class="cls-1"
       d="M 39,31 A 1,1 0 0 1 38,30 14,14 0 0 0 11.17,24.4 13.78,13.78 0 0 0 10,30 1,1 0 0 1 8,30 15.8,15.8 0 0 1 9.34,23.6 16,16 0 0 1 40,30 1,1 0 0 1 39,31 Z"
       id="path2"
       style="fill:#000000;fill-opacity:1" />
    <path
       class="cls-1"
       d="m 28,38 a 1,1 0 0 1 -1,-1 3,3 0 0 0 -6,0 1,1 0 0 1 -2,0 5,5 0 0 1 10,0 1,1 0 0 1 -1,1 z"
       id="path3"
       style="fill:#000000;fill-opacity:1" />
    <path
       class="cls-1"
       d="m 26.8,34 a 1,1 0 0 1 -0.62,-0.22 1,1 0 0 1 -0.16,-1.4 l 6.4,-8 A 1.0073356,1.0073356 0 1 1 34,25.63 l -6.4,8 A 1,1 0 0 1 26.8,34 Z"
       id="path4"
       style="fill:#000000;fill-opacity:1" />
    <g
       class="cls-2"
       id="g5"
       style="fill:#000000;fill-opacity:1">
      <path
         class="cls-1"
         d="M 35.84,15.16 A 18.89,18.89 0 0 1 39.15,32.59 2,2 0 0 1 37.23,34 H 5.45 a 18.89,18.89 0 0 0 0.9,3 h 35.3 A 18.92,18.92 0 0 0 35.84,15.16 Z"
         id="path5"
         style="fill:#000000;fill-opacity:1" />
    </g>
  </g>
</svg>
