<?xml version="1.0" encoding="UTF-8" standalone="no"?>
<!-- Uploaded to: SVG Repo, www.svgrepo.com, Generator: SVG Repo Mixer Tools -->

<svg
   width="512"
   height="512"
   viewBox="0 -4 12.8 12.8"
   version="1.1"
   id="svg1"
   sodipodi:docname="view-simple-815-svgrepo-com.svg"
   inkscape:version="1.3.2 (091e20e, 2023-11-25, custom)"
   xmlns:inkscape="http://www.inkscape.org/namespaces/inkscape"
   xmlns:sodipodi="http://sodipodi.sourceforge.net/DTD/sodipodi-0.dtd"
   xmlns="http://www.w3.org/2000/svg"
   xmlns:svg="http://www.w3.org/2000/svg"
   xmlns:rdf="http://www.w3.org/1999/02/22-rdf-syntax-ns#"
   xmlns:cc="http://creativecommons.org/ns#"
   xmlns:dc="http://purl.org/dc/elements/1.1/">
  <sodipodi:namedview
     id="namedview1"
     pagecolor="#ffffff"
     bordercolor="#000000"
     borderopacity="0.25"
     inkscape:showpageshadow="2"
     inkscape:pageopacity="0.0"
     inkscape:pagecheckerboard="0"
     inkscape:deskcolor="#d1d1d1"
     inkscape:zoom="1.04625"
     inkscape:cx="400"
     inkscape:cy="400"
     inkscape:window-width="1920"
     inkscape:window-height="1051"
     inkscape:window-x="-9"
     inkscape:window-y="-9"
     inkscape:window-maximized="1"
     inkscape:current-layer="Dribbble-Light-Preview" />
  <title
     id="title1">view_simple [#815]</title>
  <desc
     id="desc1">Created with Sketch.</desc>
  <defs
     id="defs1" />
  <g
     id="Page-1"
     stroke="none"
     stroke-width="1"
     fill="none"
     fill-rule="evenodd">
    <g
       id="Dribbble-Light-Preview"
       transform="translate(-260,-4563)"
       fill="#000000">
      <g
         id="icons"
         transform="matrix(0.63958582,0,0,0.63958582,129.52449,1743.4036)">
        <path
           d="m 216,4409.0005 c 0,1.1472 -0.895,2.0763 -2,2.0763 -1.105,0 -2,-0.9291 -2,-2.0763 0,-1.1471 0.895,-2.0763 2,-2.0763 1.105,0 2,0.9292 2,2.0763 m -2,3.9232 c -2.989,0 -5.805,-1.4763 -7.601,-3.9232 1.796,-2.4469 4.612,-3.9242 7.601,-3.9242 2.989,0 5.805,1.4773 7.601,3.9242 -1.796,2.4469 -4.612,3.9232 -7.601,3.9232 M 214,4403 c -4.276,0 -8.001,2.4168 -10,6.0005 1.999,3.5837 5.724,5.9995 10,5.9995 4.276,0 8.001,-2.4158 10,-5.9995 -1.999,-3.5837 -5.724,-6.0005 -10,-6.0005"
           id="view_simple-[#815]" />
      </g>
    </g>
  </g>
  <metadata
     id="metadata2">
    <rdf:RDF>
      <cc:Work
         rdf:about="">
        <dc:title>view_simple [#815]</dc:title>
      </cc:Work>
    </rdf:RDF>
  </metadata>
</svg>
